<svg width="155" height="50" viewBox="0 0 155 50" fill="none" xmlns="http://www.w3.org/2000/svg">
<path fill-rule="evenodd" clip-rule="evenodd" d="M1.61443 13.6365L31.341 0.251428C31.9955 -0.0534182 32.7446 -0.0822378 33.4204 0.171434C34.0962 0.425105 34.6421 0.940035 34.9357 1.60073L48.1834 31.69C48.4876 32.3459 48.5164 33.0967 48.2633 33.774C48.0101 34.4513 47.4963 34.9984 46.8371 35.2927L17.097 48.7182C16.4426 49.023 15.6935 49.0518 15.0177 48.7982C14.3419 48.5445 13.796 48.0296 13.5024 47.3689L0.241189 17.2256C-0.0570253 16.5678 -0.0796056 15.8176 0.178503 15.1431C0.436611 14.4685 0.953851 13.9258 1.61443 13.6365Z" fill="#A1D1F5"/>
<path fill-rule="evenodd" clip-rule="evenodd" d="M134.321 10.3446C134.313 11.9691 132.993 13.28 131.372 13.2726C130.594 13.269 129.849 12.9556 129.301 12.4015C128.753 11.8473 128.447 11.0977 128.451 10.3176C128.458 8.69309 129.778 7.38222 131.399 7.38968C133.02 7.39714 134.328 8.7201 134.321 10.3446ZM31.7045 34.551C36.4032 34.551 39.9305 30.9753 39.9305 24.7146C39.9305 18.4539 36.4301 14.8512 31.7045 14.8512C29.4439 14.8469 27.3154 15.9185 25.9692 17.7387V8.10475H21.0956V34.0922H25.9692V31.677C27.328 33.4804 29.4497 34.5436 31.7045 34.551ZM30.1697 30.1523C28.5243 30.1349 26.977 29.3646 25.9692 28.0608V21.3953C26.9606 20.0611 28.5104 19.2596 30.1697 19.223C33.0105 19.223 34.8953 21.4358 34.8953 24.7146C34.8953 27.9934 33.0105 30.1523 30.1697 30.1523ZM60.0041 31.9468C57.8537 33.7142 55.1365 34.6395 52.357 34.551C49.6958 34.6951 47.0981 33.7033 45.2072 31.821C43.3163 29.9388 42.3089 27.3421 42.4347 24.6741C42.3462 22.0732 43.3234 19.5492 45.139 17.6887C46.9547 15.8282 49.4508 14.7932 52.0473 14.8242C57.5807 14.8242 61.3504 19.034 61.3504 25.1734V26.2663H47.5641C47.914 28.9249 50.2824 30.8417 52.9494 30.6245C54.7684 30.5968 56.5208 29.9335 57.9038 28.749L60.0041 31.9468ZM56.6248 22.947H47.4699C47.6416 20.5559 49.6561 18.7211 52.0473 18.7777C53.2096 18.7079 54.3508 19.111 55.2125 19.8959C56.0742 20.6807 56.5834 21.7808 56.6248 22.947ZM73.6961 37.1551C72.3094 40.7038 69.8456 41.6348 66.6549 41.7157C65.8395 41.6837 65.0286 41.5799 64.2315 41.4054L64.972 36.9662C65.4602 37.1633 65.9805 37.2685 66.5068 37.2765C67.5661 37.4387 68.6077 36.8922 69.0782 35.9272L69.7783 34.3351L62.2389 15.2695H67.4626L72.3094 28.3442L77.1561 15.2965H82.4202L73.6961 37.1551ZM93.2311 34.551C95.8786 34.6715 98.4545 33.6692 100.327 31.7897C102.2 29.9103 103.197 27.3274 103.073 24.6741C103.206 21.0706 101.364 17.6822 98.27 15.8408C95.1764 13.9994 91.3262 13.9994 88.2326 15.8408C85.1391 17.6822 83.2968 21.0706 83.4299 24.6741C83.3069 27.32 84.2981 29.8961 86.1618 31.7742C88.0255 33.6523 90.5904 34.6598 93.2311 34.551ZM88.5055 24.6741C88.5055 27.6291 90.1884 30.1523 93.2311 30.1523C96.2738 30.1523 97.997 27.5481 97.997 24.6741C97.997 21.8001 96.2738 19.2769 93.2311 19.2769C90.1884 19.2769 88.5055 21.7192 88.5055 24.6741ZM111.568 34.0922V21.4358C112.548 20.0691 114.116 19.2483 115.795 19.223C117.882 19.223 119.228 20.1135 119.228 22.7311V34.0922H124.102V20.8151C124.102 17.1585 122.15 14.8242 118.071 14.8242C115.582 14.7959 113.206 15.8609 111.568 17.7387V15.2965H106.694V34.0922H111.568ZM133.836 34.0922V15.2965H128.949V34.0922H133.836ZM147.311 34.5517C150.177 34.7212 152.936 33.4328 154.65 31.1237L151.459 28.1283C150.574 29.4187 149.103 30.1787 147.541 30.1523C146.124 30.1654 144.767 29.5778 143.806 28.5344C142.844 27.491 142.367 26.0889 142.493 24.6741C142.383 23.2706 142.868 21.8856 143.828 20.8586C144.789 19.8316 146.137 19.2574 147.541 19.2769C149.11 19.2199 150.595 19.987 151.459 21.3009L154.65 18.2649C152.925 15.9797 150.181 14.7008 147.326 14.8512C144.683 14.7313 142.112 15.73 140.24 17.6034C138.368 19.4768 137.368 22.0524 137.484 24.7011C137.368 27.3498 138.368 29.9254 140.24 31.7988C142.108 33.6686 144.673 34.667 147.311 34.5517Z" fill="#001F30"/>
<path fill-rule="evenodd" clip-rule="evenodd" d="M134.321 10.3446C134.313 11.9691 132.993 13.28 131.372 13.2726C130.594 13.269 129.849 12.9556 129.301 12.4015C128.753 11.8473 128.447 11.0977 128.451 10.3176C128.458 8.69309 129.778 7.38222 131.399 7.38968C133.02 7.39714 134.328 8.7201 134.321 10.3446ZM39.9305 24.7146C39.9305 18.4539 36.4301 14.8512 31.7045 14.8512C29.4439 14.8469 27.3154 15.9185 25.9692 17.7387V8.10475H21.0956V34.0922H25.9692V31.677C27.328 33.4804 29.4497 34.5436 31.7045 34.551C36.4032 34.551 39.9305 30.9753 39.9305 24.7146ZM30.1697 30.1523C28.5243 30.1349 26.977 29.3646 25.9692 28.0608V21.3953C26.9606 20.0611 28.5104 19.2596 30.1697 19.223C33.0105 19.223 34.8953 21.4358 34.8953 24.7146C34.8953 27.9934 33.0105 30.1523 30.1697 30.1523ZM57.9038 28.749L60.0041 31.9468C57.8537 33.7142 55.1365 34.6395 52.357 34.551C49.6958 34.6951 47.0981 33.7033 45.2072 31.821C43.3163 29.9388 42.3089 27.3421 42.4347 24.6741C42.3462 22.0732 43.3234 19.5492 45.139 17.6887C46.9547 15.8282 49.4508 14.7932 52.0473 14.8242C57.5807 14.8242 61.3504 19.034 61.3504 25.1734V26.2663H47.5641C47.914 28.9249 50.2824 30.8417 52.9494 30.6245C54.7684 30.5968 56.5208 29.9335 57.9038 28.749ZM47.4699 22.947C47.6416 20.5559 49.6561 18.7211 52.0473 18.7777C53.2096 18.7079 54.3508 19.111 55.2125 19.8959C56.0742 20.6807 56.5834 21.7808 56.6248 22.947H47.4699ZM82.4202 15.2965L73.6961 37.1551C72.3094 40.7038 69.8456 41.6348 66.6549 41.7157C65.8395 41.6837 65.0286 41.5799 64.2315 41.4054L64.972 36.9662C65.4602 37.1633 65.9805 37.2685 66.5068 37.2765C67.5661 37.4387 68.6077 36.8922 69.0782 35.9272L69.7783 34.3351L62.2389 15.2695H67.4626L72.3094 28.3442L77.1561 15.2965H82.4202ZM100.327 31.7897C102.2 29.9103 103.197 27.3274 103.073 24.6741C103.206 21.0706 101.364 17.6822 98.27 15.8408C95.1764 13.9994 91.3262 13.9994 88.2326 15.8408C85.1391 17.6822 83.2968 21.0706 83.4299 24.6741C83.3069 27.32 84.2981 29.8961 86.1618 31.7742C88.0255 33.6523 90.5904 34.6598 93.2311 34.551C95.8786 34.6715 98.4545 33.6692 100.327 31.7897ZM93.2311 19.2769C90.1884 19.2769 88.5055 21.7192 88.5055 24.6741C88.5055 27.6291 90.1884 30.1523 93.2311 30.1523C96.2738 30.1523 97.997 27.5481 97.997 24.6741C97.997 21.8001 96.2738 19.2769 93.2311 19.2769ZM111.568 34.0922V21.4358C112.548 20.0691 114.116 19.2483 115.795 19.223C117.882 19.223 119.228 20.1135 119.228 22.7311V34.0922H124.102V20.8151C124.102 17.1585 122.15 14.8242 118.071 14.8242C115.582 14.7959 113.206 15.8609 111.568 17.7387V15.2965H106.694V34.0922H111.568ZM133.836 34.0922V15.2965H128.949V34.0922H133.836ZM147.311 34.5517C150.177 34.7212 152.936 33.4328 154.65 31.1237L151.459 28.1283C150.574 29.4187 149.103 30.1787 147.541 30.1523C146.124 30.1654 144.767 29.5778 143.806 28.5344C142.844 27.491 142.367 26.0889 142.493 24.6741C142.383 23.2706 142.868 21.8856 143.828 20.8586C144.789 19.8316 146.137 19.2574 147.541 19.2769C149.11 19.2199 150.595 19.987 151.459 21.3009L154.65 18.2649C152.925 15.9797 150.181 14.7008 147.326 14.8512C144.683 14.7313 142.112 15.73 140.24 17.6034C138.368 19.4768 137.368 22.0524 137.484 24.7011C137.368 27.3498 138.368 29.9254 140.24 31.7988C142.108 33.6686 144.673 34.667 147.311 34.5517Z" fill="#001F30"/>
<path d="M145.616 39.1377H143.624C142.681 41.9063 142.681 44.9101 143.624 47.6787H145.63C145.004 46.3276 144.695 44.8504 144.728 43.361C144.709 41.9047 145.013 40.4625 145.616 39.1377Z" fill="#2F3235"/>
<path d="M154.111 39.125H152.24L153.129 47.6526H155L154.111 39.125Z" fill="#2F3235"/>
<path d="M151.998 39.125H150.126L149.224 47.6526H151.096L151.284 45.9255H152.227L152.779 44.2793H151.446L151.998 39.125Z" fill="#2F3235"/>
<path d="M124.021 39.125L124.91 47.6526H126.781L125.893 39.125H124.021Z" fill="#2F3235"/>
<path d="M123.766 39.125H121.894L121.006 47.6526H122.877L123.052 45.9255H123.994L124.546 44.2793H123.227L123.766 39.125Z" fill="#2F3235"/>
<path d="M140.191 47.6518H142.022V39.1377H140.191V47.6518Z" fill="#2F3235"/>
<rect x="131.17" y="39.125" width="1.87138" height="1.76758" fill="#2F3235"/>
<path d="M129.528 39.125H127.656V47.6526H129.528V44.1984H131.049L131.601 42.5522H129.528V39.125Z" fill="#2F3235"/>
<path d="M133.917 39.125V47.6526H135.788V42.5522V39.125H133.917Z" fill="#2F3235"/>
<path d="M145.926 39.125L146.532 40.9196H148.457L147.757 39.125H145.926Z" fill="#2F3235"/>
<path d="M145.926 47.652H147.851L148.457 45.8574H146.626L145.926 47.652Z" fill="#2F3235"/>
<path d="M138.561 42.5522C138.796 41.3934 138.645 40.1893 138.131 39.125H136.219L136.421 39.4488C137.002 40.3733 137.159 41.5037 136.852 42.5522H135.788L137.552 47.6526H139.315L137.458 42.5522H138.561Z" fill="#2F3235"/>
<rect x="109.441" y="39.1377" width="1.87138" height="1.76758" fill="#2F3235"/>
<path d="M107.798 39.1113H105.94V47.5984H107.798V44.1577H109.32L109.872 42.525H107.798V39.1113Z" fill="#2F3235"/>
<path d="M111.433 45.8174L112.039 47.6119H113.964L113.264 45.8174H111.433Z" fill="#2F3235"/>
<path d="M114.678 39.1113L115.284 40.9059H117.209L116.509 39.1113H114.678Z" fill="#2F3235"/>
<rect x="103.315" y="39.1113" width="1.85791" height="8.47358" fill="#2F3235"/>
<rect x="95.7487" y="39.125" width="1.85791" height="8.47358" fill="#2F3235"/>
<path d="M100.461 45.7903L99.6934 39.1113H97.849L98.8453 47.5849H100.259H100.663H102.076L103.073 39.1113H101.228L100.461 45.7903Z" fill="#2F3235"/>
<path d="M114.247 41.5266C113.908 41.0129 113.819 40.3731 114.005 39.786L114.207 39.1113H112.241V39.2328C111.891 40.3582 112.064 41.5818 112.712 42.5655L114.449 45.1832C114.773 45.6821 114.866 46.2969 114.705 46.8698L114.503 47.6119H116.468V47.369C116.775 46.2768 116.593 45.1051 115.97 44.1577L114.247 41.5266Z" fill="#2F3235"/>
<path fill-rule="evenodd" clip-rule="evenodd" d="M85.6109 47.7195C86.0254 47.7325 86.4228 47.5533 86.688 47.2338C87.1053 46.7345 87.1053 45.8845 87.1053 44.3733C87.1053 42.8621 87.0515 41.9985 86.6341 41.5128C86.3663 41.1983 85.9693 41.0242 85.5571 41.0405C85.3086 41.0353 85.0645 41.1059 84.857 41.2429C84.7197 41.3418 84.5973 41.4599 84.4935 41.5937V38.7197H83.4838V47.6251H84.5339V47.1258C84.6317 47.2806 84.76 47.4137 84.9109 47.5171C85.1183 47.6542 85.3625 47.7248 85.6109 47.7195ZM84.8032 42.1604C85.12 41.8834 85.6003 41.9135 85.8802 42.2279V42.2144C86.0956 42.4843 86.136 43.078 86.136 44.4138C86.136 45.7496 86.0956 46.3028 85.8802 46.5726C85.7498 46.7303 85.5602 46.827 85.3562 46.8398C85.1523 46.8526 84.9521 46.7803 84.8032 46.6401C84.6196 46.4332 84.5273 46.1606 84.5474 45.8845V42.9025C84.5263 42.6303 84.6189 42.3616 84.8032 42.1604Z" fill="#2F3235"/>
<path d="M90.1211 48.651C89.8518 49.8114 89.044 50.0003 87.9804 50.0003V49.1097C88.5997 49.1097 88.9902 48.9478 89.1383 48.3541L89.3402 47.5715L87.765 41.1084H88.869L89.8653 45.9659L90.8346 41.1084H91.9386L90.1211 48.651Z" fill="#2F3235"/>
</svg>
